<?xml version="1.0" encoding="utf-8"?>
<!-- Generator: Adobe Illustrator 24.0.2, SVG Export Plug-In . SVG Version: 6.00 Build 0)  -->
<svg version="1.1" id="Capa_1" xmlns="http://www.w3.org/2000/svg" xmlns:xlink="http://www.w3.org/1999/xlink" x="0px" y="0px"
	 viewBox="0 0 1023 290.8" style="enable-background:new 0 0 1023 290.8;" xml:space="preserve">
<style type="text/css">
	.st0{fill-rule:evenodd;clip-rule:evenodd;fill:#219786;}
	.st1{fill-rule:evenodd;clip-rule:evenodd;}
</style>
<title>envidaLogo</title>
<path class="st0" d="M0.1,69.7L0,207.6l0,0l0.1,1.8l0,0l0.3,1.8l0,0l0.4,1.7l0,0l0.6,1.7l0,0l0.8,1.6l0,0l0.9,1.5l0,0l1.1,1.4l0,0
	l1.2,1.3l0,0l1.3,1.2l0,0l1.4,1.1l0,0l1.5,0.9l0,0l1.6,0.8l0,0l1.7,0.6l0,0l1.7,0.4l0,0l1.8,0.3l0,0l11.3,0.6l1.8,0.1l0,0l1.8-0.1
	l0,0l1.8-0.3l0,0l1.7-0.4l0,0l1.7-0.6l0,0l1.6-0.8l0,0l1.5-0.9l0,0l1.4-1.1l0,0l1.3-1.2l0,0l1.2-1.3l0,0l1-1.4l0,0l0.9-1.5l0,0
	l0.8-1.6l0,0l0.6-1.7l0,0l0.4-1.7l0,0l0.3-1.8l0,0l0.1-1.8l0,0l0.1-118.4l0,0l0.2-1.4l0,0L48,87l0,0l0.5-1.3l0,0l0.6-1.3l0,0
	l0.7-1.2l0,0l0.8-1.1l0,0l0.9-1l0,0l1-0.9l0,0l1.1-0.8l0,0l1.2-0.7l0,0l1.2-0.6l0,0l93.3-43.2l0,0l1.5-0.9l0,0l1.4-1.1l0,0l1.3-1.2
	l0,0l1.2-1.3l0,0l1.1-1.4l0,0l0.9-1.5l0,0l0.8-1.6l0,0l0.6-1.7l0,0l0.4-1.7l0,0l0.3-1.8l0,0l0.1-1.8l0,0l-0.1-1.8l0,0l-0.3-1.8l0,0
	l-0.4-1.7l0,0l-0.6-1.6l0,0l-0.8-1.6l0,0l-0.9-1.6l0,0l-1.1-1.4l0,0l-1.2-1.4l0,0l-1.3-1.2l0,0l-1.4-1.1l0,0l-1.5-0.9l0,0l-1.6-0.8
	l0,0L146,1.3l0,0l-1.7-0.4l0,0l-1.8-0.2l0,0l-11.3-0.6L129.5,0l0,0l-1.8,0.1l0,0l-1.8,0.3l0,0l-1.7,0.4l0,0l-1.7,0.6l0,0L121,2.2
	l0,0L9.6,53.6l0,0l-1.5,0.9l0,0l-1.4,1.1l0,0l-1.3,1.3l0,0l-1.2,1.3l0,0l-1.1,1.4l0,0l-0.9,1.5l0,0l-0.8,1.6l0,0l-0.6,1.7l0,0
	l-0.4,1.7l0,0l-0.3,1.8l0,0L0.1,69.7z"/>
<path class="st0" d="M51.7,103.5L51.7,103.5l0.1,138l0,0l0.3,1.8l0,0l0.5,1.7l0,0l0.6,1.7l0,0l0.8,1.6l0,0l0.9,1.5l0,0l1,1.4l0,0
	l1.2,1.3l0,0l1.3,1.2l0,0l1.5,1.1l0,0l1.5,0.9l0,0l1.6,0.8l0,0l1.7,0.6l0,0l1.7,0.4l0,0l1.8,0.3l0,0l11.3,0.6l1.8,0.1l0,0l1.8-0.1
	l0,0l1.8-0.3l0,0l1.7-0.4l0,0l1.7-0.6l0,0l1.6-0.8l0,0l1.5-0.9l0,0l1.4-1.1l0,0l1.3-1.2l0,0l1.2-1.3l0,0l1.1-1.4l0,0l0.9-1.5l0,0
	l0.8-1.6l0,0l0.6-1.7l0,0l0.4-1.7l0,0L99,242l0,0l0.2-120.3l0,0l0.2-1.4l0,0l0.3-1.3l0,0l0.5-1.3l0,0l0.6-1.3l0,0l0.7-1.2l0,0
	l0.8-1.1l0,0l0.9-1l0,0l1-0.9l0,0l1.1-0.8l0,0l1.2-0.7l0,0l1.2-0.6l0,0l91.6-42.2l0,0L201,67l0,0l1.5-0.9l0,0l1.4-1.1l0,0l1.3-1.2
	l0,0l1.2-1.4l0,0l1-1.4l0,0l0.9-1.5l0,0l0.8-1.6l0,0l0.6-1.7l0,0l0.4-1.7l0,0l0.3-1.8l0,0l0.1-1.8l0,0l0-1.8l0,0l-0.3-1.8l0,0
	l-0.4-1.7l0,0l-0.6-1.7l0,0l-0.8-1.6l0,0l-1-1.5l0,0l-1-1.4l0,0l-1.2-1.3l0,0l-1.3-1.2l0,0l-1.5-1.1l0,0l-1.5-0.9l0,0l-1.6-0.8l0,0
	l-1.7-0.6l0,0L196,33l0,0l-1.8-0.3l0,0l-11.3-0.6l-1.8-0.1l0,0l-1.8,0.1l0,0l-1.8,0.3l0,0l-1.7,0.4l0,0l-1.7,0.6l0,0l-1.6,0.8l0,0
	L64.2,84.3l0,0l-1.3,0.6l0,0l-1.6,0.8l0,0l-1.5,0.9l0,0l-1.4,1.1l0,0L57,88.9l0,0l-1.2,1.3l0,0l-1,1.4l0,0l-0.9,1.5l0,0l-0.8,1.6
	l0,0l-0.6,1.7l0,0l-0.4,1.7l0,0l-0.3,1.8l0,0l-0.1,1.8l0,0L51.7,103.5z"/>
<path class="st0" d="M103.5,270.1L103.5,270.1v1.8l0,0l0.1,1.8l0,0l0.3,1.8l0,0l0.4,1.7l0,0l0.6,1.7l0,0l0.8,1.6l0,0l0.9,1.5l0,0
	l1.1,1.4l0,0l1.2,1.3l0,0l1.3,1.2l0,0l1.4,1.1l0,0l1.5,0.9l0,0l1.6,0.8l0,0l1.7,0.6l0,0l1.7,0.4l0,0l1.8,0.3l0,0l11.3,0.6l1.8,0.1
	l0,0l1.8-0.1l0,0l1.8-0.3l0,0l1.7-0.4l0,0l1.7-0.6l0,0l110.8-51.1l0,0l1.8-0.8l0,0l1.6-0.8l0,0l1.6-0.9l0,0l1.4-1.1l0,0l1.3-1.2l0,0
	l1.2-1.3l0,0l1-1.4l0,0l0.9-1.5l0,0l0.8-1.6l0,0l0.6-1.7l0,0l0.4-1.7l0,0l0.3-1.8l0,0l0.1-1.8l0,0l-0.1-1.8l0,0l-0.3-1.8l0,0
	l-0.4-1.7l0,0l-0.6-1.7l0,0l-0.8-1.6l0,0l-0.9-1.5l0,0l-1-1.4l0,0l-1.2-1.3l0,0l-1.3-1.2l0,0l-1.4-1.1l0,0l-1.5-0.9l0,0l-1.6-0.8
	l0,0l-1.7-0.6l0,0l-1.7-0.4l0,0l-1.8-0.3l0,0l-11.3-0.6l-1.8-0.1l0,0l-1.8,0.1l0,0l-1.8,0.3l0,0l-1.7,0.4l0,0l-1.7,0.6l0,0l-1.6,0.8
	l0,0l-1.7,0.8l0,0l-73,33.6l0,0v-18l0,0l0.1-0.4l0,0l0.1-0.4l0,0l0.1-0.4l0,0l0.1-0.4l0,0l0.1-0.4l0,0l0.1-0.2l0.1-0.2l0,0l0.2-0.4
	l0,0l0.1-0.4l0,0l0.2-0.4l0,0l0.2-0.4l0,0l0.3-0.3l0,0l0.3-0.4l0,0l0.3-0.3l0,0l0.3-0.3l0,0l0.3-0.3l0,0l0.4-0.4l0,0l0.4-0.3l0,0
	l0.4-0.3l0,0l0.5-0.3l0,0l0.4-0.2l0,0l0.6-0.4l0,0l94.4-43.6l0,0l1.7-0.8l0,0l1.6-0.8l0,0l1.5-0.9l0,0l1.4-1.1l0,0l1.3-1.2l0,0
	l1.2-1.3l0,0l1.1-1.4l0,0l0.9-1.5l0,0l0.8-1.6l0,0l0.6-1.7l0,0l0.4-1.7l0,0l0.3-1.8l0,0l0.1-1.8l0,0l-0.1-1.8l0,0l-0.3-1.8l0,0
	l-0.4-1.7l0,0l-0.6-1.7l0,0l-0.8-1.6l0,0l-0.9-1.5l0,0l-1.1-1.4l0,0l-1.2-1.3l0,0l-1.3-1.2l0,0l-1.4-1.1l0,0l-1.5-0.9l0,0l-1.6-0.8
	l0,0l-1.7-0.6l0,0l-1.7-0.4l0,0l-1.8-0.3l0,0l-11.3-0.5l-1.8-0.1l0,0l-1.8,0.1l0,0l-1.8,0.3l0,0l-1.7,0.4l0,0l-1.7,0.6l0,0l-1.6,0.8
	l0,0l-1.6,0.8l0,0l-73.1,33.7l0,0L151,151l0,0l0.2-1.2l0,0l0.6-1.2l0,0l0.7-1.1l0,0l0.4-0.5l0.4-0.5l0,0l0.9-1l0,0l1-0.8l0,0
	l97.2-44.9l0,0l1.6-0.8l0,0l1.6-1l0,0l1.4-1.1l0,0l1.3-1.2l0,0l1.2-1.3l0,0l1.1-1.5l0,0l0.9-1.5l0,0l0.7-1.6l0,0l0.6-1.7l0,0
	l0.5-1.8l0,0l0.3-1.8l0,0l0.1-1.8l0,0l-0.1-1.8l0,0l-0.3-1.8l0,0l-0.4-1.7l0,0l-0.6-1.7l0,0l-0.8-1.6l0,0l-0.9-1.5l0,0l-1-1.4l0,0
	l-1.2-1.3l0,0l-1.3-1.2l0,0l-1.4-1.1l0,0l-1.5-0.9l0,0l-1.6-0.8l0,0l-1.7-0.6l0,0l-1.7-0.4l0,0l-1.8-0.3l0,0L235.8,64l-1.8-0.1l0,0
	l-1.8,0.1l0,0l-1.8,0.3l0,0l-1.7,0.4l0,0l-1.7,0.6l0,0l-1.6,0.8l0,0L113,118.1l0,0l-1.5,0.9l0,0l-1.4,1.1l0,0l-1.3,1.2l0,0l-1.2,1.3
	l0,0l-1,1.4l0,0l-0.9,1.5l0,0l-0.8,1.6l0,0l-0.6,1.7l0,0l-0.4,1.7l0,0l-0.3,1.8l0,0l-0.1,1.8l0,0L103.5,270.1z"/>
<path class="st0" d="M293.4,96.5L293.4,96.5l0.2,44.5l0,0l0.4,3.8l0,0l0.8,3.8l0,0l0.8,3.9l0,0l1.8,3.8l0,0l1.8,3.3l0,0l2.3,3.3l0,0
	l2.8,2.8l0,0l2.9,2.7l0,0l3.3,2.2l0,0l3.2,1.8l0,0l3.6,1.6l0,0l3.6,1l0,0l3.8,0.9l0,0l3.7,0.6l0,0l4,0.2l11.3,0.6h4.3l68.3,0.2h0.2
	h0.1l0,0l0,0l0,0h0.1l0,0l0-0.1l0,0v-0.1l0,0v-0.1l0,0v-0.1l0,0v-0.1l0,0v-0.1l0,0v-29.9l0,0v-0.1l0,0v-0.1l0,0v-0.1l0,0V147l0,0
	v-0.1l0,0h0l0,0l-0.1-0.1l0,0h-0.1l0,0h-0.1l0,0h-0.1h-0.1l-11.3-0.6l0,0l-63.4,0.1l0,0l-0.8-0.2l0,0l-1.7-0.6l0,0l-1.3-0.9l0,0
	l-0.6-0.7l0,0l-1-1.5l0,0l-0.7-1.6l0,0l-0.4-1.7l0,0l-0.1-1.6l0,0v-2.6l0,0l0,0l0,0v-0.1l0,0v-0.1l0,0v-0.1l0,0l0-0.1l0,0l0-0.1l0,0
	l0.1-0.1l0,0h0.1l0,0h0.1l0,0h0.1h0.1l51.4-0.6l0,0l3.3-0.3l0,0l3.5-0.5l0,0l3.3-0.7l0,0l3-0.8l0,0l2.8-1.1l0,0l2.7-1.3l0,0l2.6-1.6
	l0,0l2.4-1.8l0,0l2.2-2.1l0,0l2-2.3l0,0l1.8-2.5l0,0l1.5-2.6l0,0l1.3-2.8l0,0l1-2.9l0,0l1.1-5.2l0,0l0.5-4l0,0l0.1-3.2l0,0l-0.1-3.5
	l0,0l-0.4-3.4l0,0l-0.3-3.6l0,0l-0.8-3.3l0,0l-1.1-3.2l0,0l-1.4-3l0,0l-1.7-2.9l0,0l-2-2.7l0,0l-2.3-2.5l0,0l-2.5-2.3l0,0l-2.7-2
	l0,0l-2.9-1.7l0,0l-2.9-1.2l0,0l-3.8-1.2l0,0l-3.5-0.7l0,0l-3.2-0.5l0,0l-3.5-0.3l0,0l-11.3-0.6l-3.3-0.2l0,0l-35.5-0.1l0,0h-3.5
	l0,0l-3.4,0.2l0,0l-4,0.5l0,0l-3.2,0.6l0,0l-3.4,0.9l0,0l-3.3,1.2l0,0l-3.2,1.5l0,0l-3,1.8l0,0l-2.8,2.1l0,0l-2.6,2.4l0,0l-2.4,2.6
	l0,0l-2.1,2.8l0,0l-1.8,3l0,0l-1.5,3.2l0,0l-1.2,3.4l0,0l-0.9,3.4l0,0l-0.5,3.5L293.4,96.5z M336,93L336,93l0.6-1.3l0,0l0.8-1l0,0
	l0.9-1.1l0,0l1.3-0.8l0,0l1.7-0.6l0,0l1.5-0.3l0,0l1.4-0.1l0.6-0.1l0,0h3.3h26.6h0.2l0,0l0.7,0.3l0.8,0.3l0,0l1.1,0.9l0,0l0.8,1l0,0
	l0.6,1.1l0,0l0.5,1.3l0,0l0.1,0.5l0.1,0.5l0,0l0.1,0.7l0,0v0.9l0,0v0.9l0,0l-0.1,1.1l0,0l-0.2,0.9l0,0l-0.2,0.8l0,0l-0.2,0.7l0,0
	l-0.4,0.7l0,0l-0.5,0.6l0,0l-0.3,0.3l-0.3,0.3l0,0l-0.6,0.6l0,0l-0.8,0.4l0,0l-0.9,0.4l0,0l-0.9,0.2l0,0l-0.9,0.2l0,0l-1.3,0.2l0,0
	l-1.4,0.1l0,0l-1.4,0.1l0,0h-2.3l0,0l-32.1,0.1l0,0v-5l0,0v-2.1l0,0l0.2-1.3l0,0l0.4-1.2l0,0L336,93z"/>
<path class="st1" d="M293.8,92.8"/>
<path class="st0" d="M427.2,176.7L427.2,176.7L427.2,176.7L427.2,176.7v0.2l0,0v0.1l0,0l0,0.1l0,0h0l0,0h0.1l0,0h0.1l0,0h0.1h0.1
	l11.3,0.6l0,0h30h0.2h0.1l0,0l0,0l0,0l0.1-0.1l0,0h0l0,0l0-0.1l0,0v-0.1l0,0v-0.1l0,0v-0.1l0,0v-0.1l0,0v-86l0,0l0,0l0,0V91l0,0
	v-0.1l0,0v-0.1l0,0v-0.1l0,0h0.1l0,0l0.1-0.1l0,0h0.1l0,0h0.1h0.1h26.7h4.2h0.4l0,0l1.7,0.3l0,0l1.5,0.4h0.1l0,0l1.5,0.5l0,0
	l1.6,0.6l0,0l1.5,0.7l0,0l1.4,0.8l0,0l1.3,1l0,0l1.2,1.1l0,0l1.1,1.2l0,0l1,1.3l0,0l0.8,1.4l0,0l0.7,1.5l0,0l0.5,1.6l0,0l0.5,1.6
	l0,0l0.3,1.6l0,0l0.2,1.7l0,0l0.1,2.3l0,0v2.3l0,0v64.2l0,0v0.1l0,0v0.1l0,0v0.1l0,0v0.1l0,0v0.1l0,0h0l0,0h0.1l0,0h0.1l0,0h0.1h0.2
	l11.3,0.6l0,0h30.3h0.2h0.1l0,0l0,0l0,0h0.1l0,0h0l0,0v-0.1l0,0v-0.1l0,0v-0.1l0,0v-0.1l0,0v-0.1l0,0l-0.1-64.7l0,0l-0.2-5.3l0,0
	l-0.6-5.4l0,0l-0.9-4.3l0,0l-1-4.2l0,0l-1.4-4l0,0l-1.8-3.9l0,0l-2.2-3.7l0,0l-2.5-3.4l0,0l-2.2-3.4l0,0l-3.2-2.9l0,0l-3.4-2.6l0,0
	l-3.7-2.2l0,0l-3.8-1.8l0,0l-3.8-1.5l0,0l-4-1.2l0,0l-4.1-1l0,0l-3.4-0.7l0,0l-3.8-0.5l0,0l-4.4-0.4l0,0l-11.3-0.6l0,0l-4.6-0.1l0,0
	l-45-0.1h-2.8l0,0l-2.5,0.2l0,0l-2.2,0.3l0,0l-2,0.5l0,0l-1.6,0.5l0,0l-1.5,0.7l0,0l-1.4,0.8l0,0l-1.3,1l0,0l-1.2,1.1l0,0l-1.1,1.2
	l0,0l-1,1.3l0,0l-0.8,1.5l0,0l-0.7,1.5l0,0l-0.5,1.6l0,0l-0.4,1.6l0,0l-0.2,1.6l0,0l-0.3,3.2l0,0l-0.1,1.9v2.4L427.2,176.7
	L427.2,176.7L427.2,176.7z"/>
<path class="st1" d="M427.2,82.1"/>
<path class="st1" d="M427.2,79.7"/>
<path class="st1" d="M449,59.3"/>
<path class="st1" d="M561,177.5"/>
<path class="st1" d="M469.3,177.6"/>
<path class="st0" d="M548.1,59.5L548.1,59.5L548.1,59.5L548.1,59.5L548.1,59.5L548.1,59.5L548.1,59.5L548.1,59.5v0.2l0,0l38.1,93
	l0,0l1.3,3.1l0,0l1.2,2.9l0,0l1.2,3l0,0l1.3,3l0,0l1.6,2.6l0,0l1.9,2.7l0,0l2.6,2.5l0,0l2.5,2l0,0l2.9,1.6l0,0l3.3,1.3l0,0l3.1,0.8
	l0,0l3.2,0.6l0,0l3.2,0.4l0,0l11.3,0.6l3.2,0.2l0,0l3.3-0.1l0,0l3.2-0.4l0,0l3.3-0.6l0,0l3-0.9l0,0l3.1-1.1l0,0l3-1.6l0,0l2.6-1.9
	l0,0l2.5-2.5l0,0l2-2.6l0,0l1.7-2.9l0,0l1.4-2.9l1.3-2.8l0,0l1.4-3.1l0,0l1.4-3.1l0,0l40-93.2l0,0V60l0,0v-0.1l0,0l0,0l0,0v0l0,0
	l0,0l0,0l0,0l0,0v0l0,0l0,0l0,0h-0.1l0,0H703l0,0h-0.1l0,0l-11.3-0.6h-0.1h-32.8h-0.2h-0.1l0,0h-0.1l0,0l-0.1,0l0,0h-0.1l0,0
	l-0.1,0.1l0,0l-0.1,0.1l0,0l0,0l0,0l0,0l0,0v0.1l0,0v0.1l0,0l-33.3,78l0,0l-32-77.4l0,0v-0.1l0,0V60l0,0V60l0,0l-0.1-0.1l0,0l-0.3,0
	l0,0h-0.1l0,0l-0.1,0l0,0h-0.1l0,0h-0.1l0,0h-0.1l0,0l-11.3-0.6h-0.1l-32.2-0.1h-0.1h-0.1l0,0h-0.1l0,0l0,0l0,0l0,0l0,0l0,0l0,0v0.1
	l0,0v0.1L548.1,59.5z"/>
<path class="st1" d="M659.1,162.3"/>
<path class="st0" d="M705.9,52L705.9,52L705.9,52L705.9,52v0.2l0,0v0.1l0,0v0.1l0,0l0,0l0,0h0.1l0,0h0.1l0,0h0.1h0.2l11.3,0.6l0,0
	h30.2h0.1h0.1l0,0h0.1l0,0l0,0l0,0l0.1,0l0,0h0l0,0v-0.1l0,0v-0.1l0,0v-0.1l0,0v-0.1l0,0v-0.1l0,0V20l0,0v-0.1l0,0v-0.1l0,0v-0.1
	l0,0v-0.1l0,0v0l0,0l0,0l0,0H748l0,0h-0.1l0,0h-0.1l0,0h-0.1h-0.1l-11.1-0.7l0,0h-30.2h-0.2h-0.1l0,0l0,0l0,0h-0.1l0,0v0l0,0V19l0,0
	V19l0,0v0.1l0,0v0.1l0,0v0.1l0,0v32.5l0,0L705.9,52z"/>
<path class="st1" d="M748.2,53"/>
<path class="st0" d="M705.9,176.4L705.9,176.4L705.9,176.4L705.9,176.4v0.2l0,0v0.1l0,0v0.1l0,0l0,0l0,0h0.1l0,0h0.1l0,0h0.1l0,0
	h0.1h0.1l11.3,0.6l0,0h30.2h0.2h0.1l0,0l0,0l0,0h0.1l0,0h0l0,0v-0.1l0,0v-0.1l0,0V177l0,0v-0.1l0,0v-0.1l0,0V60.1l0,0V60l0,0V60l0,0
	v-0.1l0,0v-0.1l0,0v-0.1l0,0h0l0,0l-0.1,0l0,0h-0.1l0,0h-0.1l0,0h-0.1h-0.1l-11.3-0.6l0,0h-30.2h-0.1H706l0,0h-0.1l0,0l0,0l0,0h-0.1
	l0,0l0,0l0,0v0.1l0,0v0.1l0,0v0.1l0,0v0.1l0,0v0.1l0,0v116.7l0,0L705.9,176.4z"/>
<path class="st1" d="M748.2,177.3"/>
<path class="st0" d="M756.8,35.1L756.8,35.1v4.4l0,0l0.1,116.5l0,0v4.3l0,0l0.1,2.1l0,0l0.1,1.4l0,0l0.2,1.4l0,0l0.3,1.4l0,0
	l0.5,1.3l0,0l0.6,1.3l0,0l0.7,1.2l0,0l0.8,1.1l0,0l0.9,1l0,0l1,0.9l0,0l1.1,0.8l0,0l1.2,0.7l0,0l1.2,0.6l0,0l1.3,0.5l0,0l1.3,0.3
	l0,0l1.4,0.2l0,0l1.3,0.1l0,0l11.3,0.6h47.1h4.4l0,0l3.5-0.2l0,0l3.2-0.3l0,0l4-0.6l0,0l3.9-0.8l0,0l3.1-0.8l0,0l2.7-0.8l0,0
	l3.2-1.1l0,0l3.5-1.6l0,0l4.7-2.3l0,0l4.5-3l0,0l4.1-3.1l0,0l3.8-3.5l0,0l3.5-3.9l0,0l3.1-4.2l0,0l2.7-4.5l0,0l2.2-4.7l0,0l1.7-4.9
	l0,0l1.3-5.1l0,0l1.4-5.1l0,0l0.6-2.8l0,0l0.7-3.8l0,0l0.6-4.4l0.4-3.7l0,0l0.3-4.4l0,0l0.2-3.7l0,0l0.1-4.6l0,0v-3.4l0,0l-0.1-4.5
	l0,0l-0.1-3.6l0,0l-0.3-4.5l0,0l-0.4-4l0,0l-0.6-4.1l0,0l-0.8-4.3l0,0l-0.9-3.8l0,0l-1.2-5.1l0,0l-1.7-5l0,0l-1.8-4.8l0,0l-2.2-4.7
	l0,0l-2.7-4.5l0,0l-3.1-4.2l0,0l-3.5-3.8l0,0l-3.8-3.5l0,0l-4.1-3.1l0,0l-4.4-2.7l0,0l-4.7-2.2l0,0l-4.9-1.8l0,0l-5-1.3l0,0l-5-1
	l0,0l-3.7-0.6l0,0l-1.6-0.1l0,0l-11.3-0.5l0,0h-2.3l0,0H769l0,0l-1.1,0.1l0,0l-1.1,0.2l0,0l-1.1,0.3l0,0l-1.1,0.4l0,0l-1,0.5l0,0
	l-1,0.6l0,0l-0.9,0.7l0,0l-0.8,0.8l0,0l-0.8,0.9l0,0l-0.7,0.9l0,0l-0.6,1l0,0l-0.5,1l0,0l-0.4,1.1l0,0l-0.3,1.1l0,0l-0.5,1.9l0,0
	l-0.2,1.5l0,0l-0.2,1.9l0,0L756.8,35.1z M800,51.3L800,51.3h28.1l0,0l5.1,1.1l0,0l4.6,1.8l0,0l3.4,2.1l0,0l3.1,3.1l0,0l2,2.5l0,0
	l1.5,2.4l0,0l1.3,2.7l0,0l1.1,2.9l0,0l0.8,3.1l0,0l0.7,3.2l0,0l0.4,2l0,0l0.5,2.7l0,0l0.3,3l0,0l0.3,3.3l0,0l0.2,3.2l0,0l0.2,3.4
	l0,0l0.2,3.1l0,0l-0.1,3.7l0,0l-0.1,3.3l0,0l-0.2,3.2l0,0l-0.3,3.8l0,0l-0.4,3.5l0,0l-0.5,3.1l0,0l-0.9,3.9l0,0l-1,3.3l0,0l-1.1,3.3
	l0,0l-1.2,2.6l0,0l-1.6,2.8l0,0l-1.9,2.6l0,0l-2.4,1.9l0,0l-2.5,2.2l0,0l-3,1.7l0,0l-3.4,1.4l0,0l-2.5,0.8l0,0l-2.6,0.5l0,0
	l-2.1,0.2l0,0l-1.5,0.1l0,0h-25.1l0,0l0.2-92.7l0,0l0,0l0,0v-0.1l0,0v-0.1l0,0v-0.1l0,0v-0.1l0,0h0.1l0,0l0.1,0l0,0h0.1l0,0h0.1h0.2
	L800,51.3z"/>
<path class="st1" d="M895.5,116.2"/>
<path class="st0" d="M893.8,139.4l0.2,3.6l0,0l0.5,3.6l0,0l0.9,3.5l0,0l1.2,3.4l0,0l1.5,3.3l0,0l1.8,3.1l0,0l2.1,2.9l0,0l2.4,2.7
	l0,0l2.6,2.4l0,0l2.9,2.1l0,0l3.1,1.9l0,0l3.2,1.5l0,0l3.4,1.2l0,0l3.5,0.9l0,0l3.6,0.6l0,0l3.7,0.4l0,0l11.3,0.6l0,0l3.6,0.1l0,0
	h50.9l0,0h2.7l0,0l2-0.1l0,0l2.3-0.2l0,0l2.3-0.3l0,0l1.9-0.4l0,0l1.8-0.5l0,0l1.8-0.6l0,0l1.7-0.8l0,0l1.6-1l0,0l1.5-1.1l0,0
	l1.4-1.3l0,0l1.3-1.4l0,0l1.1-1.4l0,0l1-1.6l0,0l0.8-1.7l0,0l0.6-1.8l0,0l0.5-1.8l0,0l0.3-1.9l0,0l0.2-1.8l0,0l0.1-2l0,0l-0.2-59
	l0,0l-0.2-3.6l0,0l-0.5-3.6l0,0l-0.9-3.5l0,0l-1.2-3.4l0,0l-1.5-3.3l0,0l-1.9-3l0,0l-2.1-2.9l0,0l-2.4-2.7l0,0l-2.6-2.4l0,0
	l-2.9-2.1l0,0l-3.1-1.9l0,0l-3.2-1.5l0,0l-3.4-1.2l0,0l-3.5-0.9l0,0l-3.5-0.5l0,0l-11.3-0.6l-3.6-0.2l0,0l-73.8,0.1h-0.2h-0.1l0,0
	l0,0l0,0h-0.1l0,0l0,0l0,0v0.1l0,0v0.1l0,0v0.1l0,0v0.1l0,0v0.1l0,0v27.6l0,0v0.1l0,0v0.1l0,0v0.1l0,0v0.1l0,0v0.1l0,0l0,0l0,0h0.1
	l0,0h0.1l0,0h0.1h0.2l11.3,0.6l0,0h60.6l0,0l0.9,0.3l0,0l1,0.5l0,0l1,0.6l0,0l0.9,0.7l0,0l0.8,0.8l0,0l0.8,0.8l0,0l0.7,0.9l0,0
	l0.6,1l0,0l0.5,1l0,0v0.1l0.3,1l0,0l0.3,1.1l0,0l0.1,1.6l0,0l0.2,3.4l0,0v3.2l0,0v1.6l0,0l0,0l0,0v0.1l0,0v0.1l0,0v0.1l0,0v0.1l0,0
	v0.1l0,0h-0.1l0,0h-0.1l0,0h-0.1l0,0H981h-0.1h-66.2l-3,0.1l0,0l-2,1l0,0l-3,1.9l0,0l-3,2.6l0,0l-2.3,2.3l0,0l-2.2,3.3l0,0l-1.6,3.5
	l0,0l-1.2,3.9l0,0l-1.2,3.4l0,0l-0.9,3.5l0,0l-0.5,3.6l0,0L893.8,139.4L893.8,139.4z M939.8,145L939.8,145l-1.3-1.1l0,0l-1-1.4l0,0
	l-0.5-1.4l0,0l-0.3-1.6l0,0v-1.4l0,0v-1.4l0,0l0.1-1.5l0,0l0.5-1.3l0,0l0.9-1.4l0,0l1-1l0,0l1.2-1l0,0l1.3-0.7l0,0l1.2-0.5l0,0
	l2.3-0.5l0,0l36.1-0.2l0,0v18.7l0,0l0,0l0,0v0.1l0,0v0.1l0,0v0.1l0,0v0.1l0,0l0,0.1l0,0h-0.1l0,0H981l0,0H981l0,0h-0.1h-0.1h-21.6
	H947l0,0l-2-0.6l0,0l-1.8-0.7l0,0l-1.8-0.9l0,0L939.8,145z"/>
<path class="st1" d="M914.5,107.4"/>
</svg>
